Coordinates
version=1
nRows=13
nColumns=36
inDegrees=yes

Units are S.I. units (second, meters, Newtons, ...)
If the header above contains a line with 'inDegrees', this indicates whether rotational values are in degrees (yes) or radians (no).

endheader
time	pelvis_tilt	pelvis_list	pelvis_rotation	pelvis_tx	pelvis_ty	pelvis_tz	hip_flexion_r	hip_adduction_r	hip_rotation_r	knee_angle_r	knee_angle_r_beta	ankle_angle_r	subtalar_angle_r	mtp_angle_r	hip_flexion_l	hip_adduction_l	hip_rotation_l	knee_angle_l	knee_angle_l_beta	ankle_angle_l	subtalar_angle_l	mtp_angle_l	lumbar_extension	lumbar_bending	lumbar_rotation	arm_flex_r	arm_add_r	arm_rot_r	elbow_flex_r	pro_sup_r	arm_flex_l	arm_add_l	arm_rot_l	elbow_flex_l	pro_sup_l
      0.00000000	     -3.96708579	      0.83505990	      4.05245254	     -0.12329069	      0.89084218	     -0.22984714	     33.05090824	     -1.63176902	      2.68776354	     11.01317491	      0.19221616	      7.10174980	     -3.02887421	     -5.03776667	     -9.72037200	      5.85648594	      6.11236183	      7.85901373	      0.13716567	     16.53705851	     -4.41594027	     -5.03776667	     -5.73024552	      0.92693037	    -11.81368759	    -13.98448927	    -13.37360335	    -10.37397394	     36.04291977	    102.02139767	      6.46661901	    -20.19879845	      0.43126574	     61.11722847	    100.60730914
      0.01000000	     -4.09011243	      0.79095178	      4.30666143	     -0.11017618	      0.88880172	     -0.22936522	     33.02411898	     -1.56940291	      2.15283231	     10.98295410	      0.19168871	      7.42799328	     -3.81015416	     -5.05657665	    -10.16542863	      5.63166506	      5.90075550	      8.49222571	      0.14821730	     16.31621165	     -4.53636387	     -5.05657665	     -5.44278763	      0.97437253	    -11.99579903	    -14.46411199	    -13.44006931	    -10.50443140	     35.59842426	    102.12896101	      6.50121779	    -20.27781298	      0.43928886	     61.54942652	    100.81883897
      0.02000000	     -4.28448752	      0.73616678	      4.57541321	     -0.09707845	      0.88667595	     -0.22877548	     33.02195988	     -1.39607354	      2.21156463	     10.99585279	      0.19191384	      6.81554408	     -5.91721520	     -5.40211957	    -10.47916328	      5.36822084	      5.72894249	      9.25421679	      0.16151655	     16.66431764	     -4.05680527	     -5.40211957	     -5.08276471	      1.00255227	    -12.58042807	    -14.57223176	    -13.36719463	    -11.09155894	     34.89014052	    104.18662605	      6.03285911	    -20.36951819	     -0.32860390	     62.19284550	    103.48605694
      0.03000000	     -4.33736992	      0.62783036	      4.84110709	     -0.08374126	      0.88485401	     -0.22828387	     32.93283422	     -1.23898956	      1.74100541	     11.42503948	      0.19940456	      7.08101231	     -6.34220226	     -5.41459289	    -10.96459382	      5.05040964	      5.80109446	      9.97242631	      0.17405167	     16.49170090	     -4.05453281	     -5.41459289	     -4.87366552	      1.15462184	    -12.75180996	    -14.97992872	    -13.40496505	    -11.30737164	     34.49550310	    104.17684780	      6.02811421	    -20.32142451	     -0.30511040	     62.55164535	    103.58135916
      0.04000000	     -4.36931853	      0.49615287	      5.07767212	     -0.07019029	      0.88314707	     -0.22766884	     32.81092219	     -1.00307228	      1.41328442	     12.12013411	      0.21153625	      7.12635119	     -6.69597797	     -5.42536999	    -11.41366508	      4.68925313	      5.84709823	     10.79689204	      0.18844132	     16.31795315	     -4.03524895	     -5.42536999	     -4.67651452	      1.32963228	    -12.94099696	    -15.31262736	    -13.39594501	    -11.57769108	     34.13502153	    104.15466040	      5.88359717	    -20.30948688	     -0.30687146	     62.90075990	    103.66739472
      0.05000000	     -4.54115895	      0.36963125	      5.35000857	     -0.05646084	      0.88136862	     -0.22693617	     32.87104315	     -0.79125855	      0.91736084	     13.07957563	      0.22828166	      6.78124302	     -7.25335789	     -5.51062257	    -11.47473314	      4.27725364	      5.46423781	     12.04861040	      0.21028792	     16.42590880	     -3.53573806	     -5.51062257	     -4.32603685	      1.45472463	    -13.40471810	    -15.40730532	    -13.10824914	    -12.81611389	     33.72348798	    104.23011923	      5.18775299	    -20.26457839	     -0.98435665	     63.77317853	    104.06969962
      0.06000000	     -4.54238060	      0.15079113	      5.49769168	     -0.04248682	      0.88001357	     -0.22604317	     32.66743729	     -0.37706366	      0.76237429	     14.05617596	      0.24532655	      6.25811711	     -7.49404480	     -5.55628463	    -11.73672910	      3.76470442	      5.18119112	     13.23648433	      0.23102023	     15.97099132	     -3.31835350	     -5.55628463	     -4.16043458	      1.74904543	    -13.47135581	    -15.67295660	    -13.05600891	    -13.19660215	     33.49190890	    104.30436005	      4.82392896	    -20.14486394	     -1.12150348	     64.13589572	    104.26119698
      0.07000000	     -4.42309615	     -0.08215847	      5.55726815	     -0.02829810	      0.87905571	     -0.22507373	     32.23766330	      0.12250663	      0.96230603	     14.96715825	      0.26122619	      5.85391345	     -7.43513427	     -5.56404090	    -12.18764883	      3.27074906	      5.31659055	     14.32886549	      0.25008588	     15.41628404	     -3.18920388	     -5.56404090	     -4.12740059	      2.09904247	    -13.38783737	    -15.91449703	    -13.07123482	    -13.31228945	     33.29537253	    104.30058359	      4.51475658	    -19.96438578	     -1.11720880	     64.26420211	    104.29834066
      0.08000000	     -4.46498004	     -0.39087637	      5.58260906	     -0.01406873	      0.87810252	     -0.22383538	     32.03384632	      0.66415988	      0.73992466	     15.87082262	      0.27699811	      4.40773760	     -7.89712728	     -5.66305204	    -12.01386491	      2.55436082	      4.18735640	     16.15716752	      0.28199577	     14.66433020	     -2.36421708	     -5.66305204	     -3.92430172	      2.48072710	    -13.40749530	    -15.97497541	    -12.85996612	    -14.18081677	     33.11279561	    104.45053069	      3.79704235	    -19.63195142	     -1.76516372	     64.80077860	    104.56057822
      0.09000000	     -4.38000053	     -0.70019581	      5.53195509	      0.00025908	      0.87766663	     -0.22253316	     31.64588955	      1.21699541	      0.61882238	     16.74245917	      0.29221104	      3.48722196	     -7.71674030	     -5.68519355	    -12.03437077	      1.89994243	      3.66580220	     17.84466798	      0.31144821	     13.42196186	     -2.21675665	     -5.68519355	     -3.86991338	      2.90630767	    -13.11957870	    -16.11619561	    -12.82231643	    -14.25585457	     32.95042829	    104.48787472	      3.39386103	    -19.33318343	     -1.76575523	     64.84345604	    104.60922274
      0.10000000	     -4.34831105	     -1.07152262	      5.39868630	      0.01467770	      0.87745293	     -0.22103567	     31.35159631	      1.82687465	      0.44225803	     17.69735095	      0.30887704	      2.46585395	     -7.59674500	     -5.71328426	    -11.84696384	      1.13710567	      2.89115907	     19.73454200	      0.34443273	     11.96682071	     -1.82943087	     -5.71328426	     -3.74944218	      3.40608934	    -12.78539063	    -16.18868970	    -12.77844438	    -14.35343146	     32.80323628	    104.53195828	      2.88292198	    -18.97004281	     -1.87868019	     64.74291165	    104.63892264
      0.11000000	     -4.22224648	     -1.42876400	      5.22066365	      0.02900539	      0.87770682	     -0.21941641	     30.95236480	      2.41942106	      0.26596779	     18.68525350	      0.32611920	      1.77827045	     -7.53853121	     -5.73204124	    -11.56144060	      0.37658946	      2.15650490	     21.92951823	      0.38274230	     10.33731012	     -1.45580476	     -5.73204124	     -3.75716407	      3.88433653	    -12.33259227	    -16.17361685	    -12.72939357	    -14.34610801	     32.71897052	    104.56860251	      2.42935818	    -18.55634250	     -1.98054939	     64.57081088	    104.64312373
      0.12000000	     -4.20364908	     -1.88215488	      4.93639374	      0.04333615	      0.87810716	     -0.21754342	     30.74023119	      3.12821593	      0.04970708	     19.85697239	      0.34656955	      1.17289622	     -7.50859990	     -5.75818200	    -10.95295587	     -0.55491985	      1.03018388	     24.38389805	      0.42557931	      8.40643876	     -0.85540007	     -5.75818200	     -3.62731375	      4.46160484	    -11.82023550	    -16.10373589	    -12.71820904	    -14.24898907	     32.69197386	    104.63399815	      1.88286330	    -18.06915851	     -2.12463088	     64.18471314	    104.63708325
